<mxfile host="65bd71144e">
    <diagram id="C5RBs43oDa-KdzZeNtuy" name="Page-1">
        <mxGraphModel dx="746" dy="398" grid="1" gridSize="10" guides="1" tooltips="1" connect="1" arrows="1" fold="1" page="1" pageScale="1" pageWidth="827" pageHeight="1169" background="#283618" math="0" shadow="0">
            <root>
                <mxCell id="WIyWlLk6GJQsqaUBKTNV-0"/>
                <mxCell id="WIyWlLk6GJQsqaUBKTNV-1" parent="WIyWlLk6GJQsqaUBKTNV-0"/>
                <mxCell id="tlL8x4SYafilrO8FaroJ-30" style="edgeStyle=orthogonalEdgeStyle;curved=0;rounded=1;sketch=0;orthogonalLoop=1;jettySize=auto;html=1;exitX=0.5;exitY=0;exitDx=0;exitDy=0;entryX=1;entryY=0.5;entryDx=0;entryDy=0;fontColor=#FEFAE0;strokeColor=#DDA15E;fillColor=#BC6C25;labelBackgroundColor=#283618;dashed=1;dashPattern=8 8;endArrow=block;endFill=0;" parent="WIyWlLk6GJQsqaUBKTNV-1" source="zkfFHV4jXpPFQw0GAbJ--0" target="tlL8x4SYafilrO8FaroJ-16" edge="1">
                    <mxGeometry relative="1" as="geometry"/>
                </mxCell>
                <mxCell id="zkfFHV4jXpPFQw0GAbJ--0" value="Interpreter" style="swimlane;fontStyle=2;align=center;verticalAlign=top;childLayout=stackLayout;horizontal=1;startSize=26;horizontalStack=0;resizeParent=1;resizeLast=0;collapsible=1;marginBottom=0;rounded=1;shadow=0;strokeWidth=1;fillColor=#BC6C25;strokeColor=#DDA15E;fontColor=#FEFAE0;" parent="WIyWlLk6GJQsqaUBKTNV-1" vertex="1">
                    <mxGeometry x="230" y="50" width="160" height="60" as="geometry">
                        <mxRectangle x="230" y="140" width="160" height="26" as="alternateBounds"/>
                    </mxGeometry>
                </mxCell>
                <mxCell id="tlL8x4SYafilrO8FaroJ-0" value="Station (vertex)" style="swimlane;fontStyle=0;childLayout=stackLayout;horizontal=1;startSize=30;horizontalStack=0;resizeParent=1;resizeParentMax=0;resizeLast=0;collapsible=1;marginBottom=0;fillColor=#BC6C25;strokeColor=#DDA15E;fontColor=#FEFAE0;rounded=1;" parent="WIyWlLk6GJQsqaUBKTNV-1" vertex="1">
                    <mxGeometry x="190" y="330" width="320" height="150" as="geometry"/>
                </mxCell>
                <mxCell id="tlL8x4SYafilrO8FaroJ-2" value="AllLine : ArrayList&lt;String&gt;" style="text;strokeColor=none;fillColor=none;align=left;verticalAlign=middle;spacingLeft=4;spacingRight=4;overflow=hidden;points=[[0,0.5],[1,0.5]];portConstraint=eastwest;rotatable=0;fontColor=#FEFAE0;rounded=1;" parent="tlL8x4SYafilrO8FaroJ-0" vertex="1">
                    <mxGeometry y="30" width="320" height="30" as="geometry"/>
                </mxCell>
                <mxCell id="tlL8x4SYafilrO8FaroJ-8" value="Coordinates : (Float, Float)" style="text;strokeColor=none;fillColor=none;align=left;verticalAlign=middle;spacingLeft=4;spacingRight=4;overflow=hidden;points=[[0,0.5],[1,0.5]];portConstraint=eastwest;rotatable=0;fontColor=#FEFAE0;rounded=1;" parent="tlL8x4SYafilrO8FaroJ-0" vertex="1">
                    <mxGeometry y="60" width="320" height="30" as="geometry"/>
                </mxCell>
                <mxCell id="tlL8x4SYafilrO8FaroJ-1" value="Name : String" style="text;strokeColor=none;fillColor=none;align=left;verticalAlign=middle;spacingLeft=4;spacingRight=4;overflow=hidden;points=[[0,0.5],[1,0.5]];portConstraint=eastwest;rotatable=0;fontColor=#FEFAE0;rounded=1;" parent="tlL8x4SYafilrO8FaroJ-0" vertex="1">
                    <mxGeometry y="90" width="320" height="30" as="geometry"/>
                </mxCell>
                <mxCell id="tlL8x4SYafilrO8FaroJ-40" value="" style="endArrow=none;dashed=1;html=1;rounded=1;sketch=0;fontColor=#FEFAE0;strokeColor=#DDA15E;fillColor=#BC6C25;curved=0;exitX=0.004;exitY=-0.033;exitDx=0;exitDy=0;exitPerimeter=0;labelBackgroundColor=#283618;entryX=0.991;entryY=0.06;entryDx=0;entryDy=0;entryPerimeter=0;" parent="tlL8x4SYafilrO8FaroJ-0" edge="1">
                    <mxGeometry width="50" height="50" relative="1" as="geometry">
                        <mxPoint x="1.2799999999999727" y="119.00999999999999" as="sourcePoint"/>
                        <mxPoint x="317.12" y="121.79999999999995" as="targetPoint"/>
                        <Array as="points"/>
                    </mxGeometry>
                </mxCell>
                <mxCell id="13" value="CreateStation(Name, Line, Coordinates)" style="text;strokeColor=none;fillColor=none;align=left;verticalAlign=middle;spacingLeft=4;spacingRight=4;overflow=hidden;points=[[0,0.5],[1,0.5]];portConstraint=eastwest;rotatable=0;fontColor=#FEFAE0;rounded=1;" vertex="1" parent="tlL8x4SYafilrO8FaroJ-0">
                    <mxGeometry y="120" width="320" height="30" as="geometry"/>
                </mxCell>
                <mxCell id="tlL8x4SYafilrO8FaroJ-4" value="Edge" style="swimlane;fontStyle=0;childLayout=stackLayout;horizontal=1;startSize=30;horizontalStack=0;resizeParent=1;resizeParentMax=0;resizeLast=0;collapsible=1;marginBottom=0;fillColor=#BC6C25;strokeColor=#DDA15E;fontColor=#FEFAE0;rounded=1;" parent="WIyWlLk6GJQsqaUBKTNV-1" vertex="1">
                    <mxGeometry x="560" y="330" width="270" height="150" as="geometry"/>
                </mxCell>
                <mxCell id="tlL8x4SYafilrO8FaroJ-5" value="Time : (int,int)" style="text;strokeColor=none;fillColor=none;align=left;verticalAlign=middle;spacingLeft=4;spacingRight=4;overflow=hidden;points=[[0,0.5],[1,0.5]];portConstraint=eastwest;rotatable=0;fontColor=#FEFAE0;rounded=1;" parent="tlL8x4SYafilrO8FaroJ-4" vertex="1">
                    <mxGeometry y="30" width="270" height="30" as="geometry"/>
                </mxCell>
                <mxCell id="tlL8x4SYafilrO8FaroJ-7" value="Distance : ???" style="text;strokeColor=none;fillColor=none;align=left;verticalAlign=middle;spacingLeft=4;spacingRight=4;overflow=hidden;points=[[0,0.5],[1,0.5]];portConstraint=eastwest;rotatable=0;fontColor=#FEFAE0;rounded=1;" parent="tlL8x4SYafilrO8FaroJ-4" vertex="1">
                    <mxGeometry y="60" width="270" height="30" as="geometry"/>
                </mxCell>
                <mxCell id="tlL8x4SYafilrO8FaroJ-32" value="createEdge(Time, Distance, Station, Station)" style="text;strokeColor=none;fillColor=none;align=left;verticalAlign=middle;spacingLeft=4;spacingRight=4;overflow=hidden;points=[[0,0.5],[1,0.5]];portConstraint=eastwest;rotatable=0;rounded=1;sketch=0;fontColor=#FEFAE0;" parent="tlL8x4SYafilrO8FaroJ-4" vertex="1">
                    <mxGeometry y="90" width="270" height="30" as="geometry"/>
                </mxCell>
                <mxCell id="tlL8x4SYafilrO8FaroJ-41" value="" style="endArrow=none;dashed=1;html=1;rounded=1;sketch=0;fontColor=#FEFAE0;strokeColor=#DDA15E;fillColor=#BC6C25;curved=0;entryX=1;entryY=0.067;entryDx=0;entryDy=0;entryPerimeter=0;exitX=0.01;exitY=0.1;exitDx=0;exitDy=0;exitPerimeter=0;labelBackgroundColor=#283618;" parent="tlL8x4SYafilrO8FaroJ-4" source="tlL8x4SYafilrO8FaroJ-32" target="tlL8x4SYafilrO8FaroJ-32" edge="1">
                    <mxGeometry width="50" height="50" relative="1" as="geometry">
                        <mxPoint x="10" y="92" as="sourcePoint"/>
                        <mxPoint x="210" y="110" as="targetPoint"/>
                    </mxGeometry>
                </mxCell>
                <mxCell id="tlL8x4SYafilrO8FaroJ-39" value="typeofTime(typeDeTransport) : int" style="text;strokeColor=none;fillColor=none;align=left;verticalAlign=middle;spacingLeft=4;spacingRight=4;overflow=hidden;points=[[0,0.5],[1,0.5]];portConstraint=eastwest;rotatable=0;rounded=1;sketch=0;fontColor=#FEFAE0;" parent="tlL8x4SYafilrO8FaroJ-4" vertex="1">
                    <mxGeometry y="120" width="270" height="30" as="geometry"/>
                </mxCell>
                <mxCell id="tlL8x4SYafilrO8FaroJ-14" value="(AbstractClass) InterpreterV0" style="swimlane;fontStyle=0;childLayout=stackLayout;horizontal=1;startSize=30;horizontalStack=0;resizeParent=1;resizeParentMax=0;resizeLast=0;collapsible=1;marginBottom=0;fillColor=#BC6C25;strokeColor=#DDA15E;fontColor=#FEFAE0;rounded=1;" parent="WIyWlLk6GJQsqaUBKTNV-1" vertex="1">
                    <mxGeometry x="30" y="20" width="160" height="150" as="geometry"/>
                </mxCell>
                <mxCell id="tlL8x4SYafilrO8FaroJ-15" value="Line : String" style="text;strokeColor=none;fillColor=none;align=left;verticalAlign=middle;spacingLeft=4;spacingRight=4;overflow=hidden;points=[[0,0.5],[1,0.5]];portConstraint=eastwest;rotatable=0;fontColor=#FEFAE0;rounded=1;" parent="tlL8x4SYafilrO8FaroJ-14" vertex="1">
                    <mxGeometry y="30" width="160" height="30" as="geometry"/>
                </mxCell>
                <mxCell id="tlL8x4SYafilrO8FaroJ-16" value="DepartureStation : String" style="text;strokeColor=none;fillColor=none;align=left;verticalAlign=middle;spacingLeft=4;spacingRight=4;overflow=hidden;points=[[0,0.5],[1,0.5]];portConstraint=eastwest;rotatable=0;fontColor=#FEFAE0;rounded=1;" parent="tlL8x4SYafilrO8FaroJ-14" vertex="1">
                    <mxGeometry y="60" width="160" height="30" as="geometry"/>
                </mxCell>
                <mxCell id="tlL8x4SYafilrO8FaroJ-17" value="ArrivalStationÂ : String" style="text;strokeColor=none;fillColor=none;align=left;verticalAlign=middle;spacingLeft=4;spacingRight=4;overflow=hidden;points=[[0,0.5],[1,0.5]];portConstraint=eastwest;rotatable=0;fontColor=#FEFAE0;rounded=1;" parent="tlL8x4SYafilrO8FaroJ-14" vertex="1">
                    <mxGeometry y="90" width="160" height="30" as="geometry"/>
                </mxCell>
                <mxCell id="tlL8x4SYafilrO8FaroJ-20" value="DepartureTime : (int,int)" style="text;strokeColor=none;fillColor=none;align=left;verticalAlign=middle;spacingLeft=4;spacingRight=4;overflow=hidden;points=[[0,0.5],[1,0.5]];portConstraint=eastwest;rotatable=0;fontColor=#FEFAE0;rounded=1;" parent="tlL8x4SYafilrO8FaroJ-14" vertex="1">
                    <mxGeometry y="120" width="160" height="30" as="geometry"/>
                </mxCell>
                <mxCell id="tlL8x4SYafilrO8FaroJ-54" style="edgeStyle=orthogonalEdgeStyle;curved=0;rounded=1;sketch=0;orthogonalLoop=1;jettySize=auto;html=1;exitX=0.5;exitY=0;exitDx=0;exitDy=0;entryX=0.5;entryY=1;entryDx=0;entryDy=0;entryPerimeter=0;fontColor=#FEFAE0;strokeColor=#DDA15E;fillColor=#BC6C25;labelBackgroundColor=#283618;dashed=1;dashPattern=8 8;endArrow=block;endFill=0;" parent="WIyWlLk6GJQsqaUBKTNV-1" source="tlL8x4SYafilrO8FaroJ-25" target="tlL8x4SYafilrO8FaroJ-20" edge="1">
                    <mxGeometry relative="1" as="geometry"/>
                </mxCell>
                <mxCell id="tlL8x4SYafilrO8FaroJ-25" value="Potential Interpreter" style="swimlane;fontStyle=0;childLayout=stackLayout;horizontal=1;startSize=30;horizontalStack=0;resizeParent=1;resizeParentMax=0;resizeLast=0;collapsible=1;marginBottom=0;fillColor=#BC6C25;strokeColor=#DDA15E;fontColor=#FEFAE0;rounded=1;" parent="WIyWlLk6GJQsqaUBKTNV-1" vertex="1">
                    <mxGeometry x="40" y="210" width="140" height="60" as="geometry"/>
                </mxCell>
                <mxCell id="tlL8x4SYafilrO8FaroJ-27" value="???" style="text;strokeColor=none;fillColor=none;align=left;verticalAlign=middle;spacingLeft=4;spacingRight=4;overflow=hidden;points=[[0,0.5],[1,0.5]];portConstraint=eastwest;rotatable=0;fontColor=#FEFAE0;rounded=1;" parent="tlL8x4SYafilrO8FaroJ-25" vertex="1">
                    <mxGeometry y="30" width="140" height="30" as="geometry"/>
                </mxCell>
                <mxCell id="tlL8x4SYafilrO8FaroJ-37" style="edgeStyle=orthogonalEdgeStyle;curved=0;rounded=1;sketch=0;orthogonalLoop=1;jettySize=auto;html=1;entryX=0;entryY=0.5;entryDx=0;entryDy=0;fontColor=#FEFAE0;strokeColor=#DDA15E;fillColor=#BC6C25;labelBackgroundColor=#283618;endArrow=diamond;endFill=1;exitX=1;exitY=0.5;exitDx=0;exitDy=0;" parent="WIyWlLk6GJQsqaUBKTNV-1" source="tlL8x4SYafilrO8FaroJ-8" target="tlL8x4SYafilrO8FaroJ-7" edge="1">
                    <mxGeometry relative="1" as="geometry">
                        <mxPoint x="540" y="370" as="sourcePoint"/>
                        <Array as="points"/>
                    </mxGeometry>
                </mxCell>
                <mxCell id="tlL8x4SYafilrO8FaroJ-68" style="edgeStyle=orthogonalEdgeStyle;curved=0;rounded=1;sketch=0;orthogonalLoop=1;jettySize=auto;html=1;exitX=0.5;exitY=1;exitDx=0;exitDy=0;fontColor=#FEFAE0;strokeColor=#DDA15E;fillColor=#BC6C25;endArrow=none;endFill=0;" parent="WIyWlLk6GJQsqaUBKTNV-1" source="tlL8x4SYafilrO8FaroJ-48" target="tlL8x4SYafilrO8FaroJ-61" edge="1">
                    <mxGeometry relative="1" as="geometry"/>
                </mxCell>
                <mxCell id="tlL8x4SYafilrO8FaroJ-48" value="Algorithme" style="swimlane;fontStyle=0;childLayout=stackLayout;horizontal=1;startSize=30;horizontalStack=0;resizeParent=1;resizeParentMax=0;resizeLast=0;collapsible=1;marginBottom=0;rounded=1;sketch=0;fontColor=#FEFAE0;strokeColor=#DDA15E;fillColor=#BC6C25;" parent="WIyWlLk6GJQsqaUBKTNV-1" vertex="1">
                    <mxGeometry x="525" y="20" width="270" height="120" as="geometry"/>
                </mxCell>
                <mxCell id="tlL8x4SYafilrO8FaroJ-56" value="DistanceFavoredAwnser (Station, Station) : Graphe" style="text;strokeColor=none;fillColor=none;align=left;verticalAlign=middle;spacingLeft=4;spacingRight=4;overflow=hidden;points=[[0,0.5],[1,0.5]];portConstraint=eastwest;rotatable=0;rounded=1;sketch=0;fontColor=#FEFAE0;" parent="tlL8x4SYafilrO8FaroJ-48" vertex="1">
                    <mxGeometry y="30" width="270" height="30" as="geometry"/>
                </mxCell>
                <mxCell id="tlL8x4SYafilrO8FaroJ-57" value="TimeFavoredAwnser(Station, Station) : Graph" style="text;strokeColor=none;fillColor=none;align=left;verticalAlign=middle;spacingLeft=4;spacingRight=4;overflow=hidden;points=[[0,0.5],[1,0.5]];portConstraint=eastwest;rotatable=0;rounded=1;sketch=0;fontColor=#FEFAE0;" parent="tlL8x4SYafilrO8FaroJ-48" vertex="1">
                    <mxGeometry y="60" width="270" height="30" as="geometry"/>
                </mxCell>
                <mxCell id="tlL8x4SYafilrO8FaroJ-58" value="GenericAwnser(Station, Station) : Graph" style="text;strokeColor=none;fillColor=none;align=left;verticalAlign=middle;spacingLeft=4;spacingRight=4;overflow=hidden;points=[[0,0.5],[1,0.5]];portConstraint=eastwest;rotatable=0;rounded=1;sketch=0;fontColor=#FEFAE0;" parent="tlL8x4SYafilrO8FaroJ-48" vertex="1">
                    <mxGeometry y="90" width="270" height="30" as="geometry"/>
                </mxCell>
                <mxCell id="tlL8x4SYafilrO8FaroJ-67" style="edgeStyle=orthogonalEdgeStyle;curved=0;rounded=1;sketch=0;orthogonalLoop=1;jettySize=auto;html=1;exitX=0.5;exitY=0;exitDx=0;exitDy=0;entryX=1;entryY=0.5;entryDx=0;entryDy=0;fontColor=#FEFAE0;strokeColor=#DDA15E;fillColor=#BC6C25;endArrow=none;endFill=0;" parent="WIyWlLk6GJQsqaUBKTNV-1" source="tlL8x4SYafilrO8FaroJ-61" target="zkfFHV4jXpPFQw0GAbJ--0" edge="1">
                    <mxGeometry relative="1" as="geometry">
                        <Array as="points">
                            <mxPoint x="540" y="160"/>
                            <mxPoint x="390" y="160"/>
                        </Array>
                    </mxGeometry>
                </mxCell>
                <mxCell id="tlL8x4SYafilrO8FaroJ-61" value="Graph" style="swimlane;fontStyle=0;childLayout=stackLayout;horizontal=1;startSize=30;horizontalStack=0;resizeParent=1;resizeParentMax=0;resizeLast=0;collapsible=1;marginBottom=0;rounded=1;sketch=0;fontColor=#FEFAE0;strokeColor=#DDA15E;fillColor=#BC6C25;" parent="WIyWlLk6GJQsqaUBKTNV-1" vertex="1">
                    <mxGeometry x="470" y="190" width="140" height="90" as="geometry"/>
                </mxCell>
                <mxCell id="tlL8x4SYafilrO8FaroJ-62" value="Edge : edge" style="text;strokeColor=none;fillColor=none;align=left;verticalAlign=middle;spacingLeft=4;spacingRight=4;overflow=hidden;points=[[0,0.5],[1,0.5]];portConstraint=eastwest;rotatable=0;rounded=1;sketch=0;fontColor=#FEFAE0;" parent="tlL8x4SYafilrO8FaroJ-61" vertex="1">
                    <mxGeometry y="30" width="140" height="30" as="geometry"/>
                </mxCell>
                <mxCell id="tlL8x4SYafilrO8FaroJ-63" value="Vertex : vertex" style="text;strokeColor=none;fillColor=none;align=left;verticalAlign=middle;spacingLeft=4;spacingRight=4;overflow=hidden;points=[[0,0.5],[1,0.5]];portConstraint=eastwest;rotatable=0;rounded=1;sketch=0;fontColor=#FEFAE0;" parent="tlL8x4SYafilrO8FaroJ-61" vertex="1">
                    <mxGeometry y="60" width="140" height="30" as="geometry"/>
                </mxCell>
                <mxCell id="tlL8x4SYafilrO8FaroJ-65" style="edgeStyle=orthogonalEdgeStyle;curved=0;rounded=1;sketch=0;orthogonalLoop=1;jettySize=auto;html=1;fontColor=#FEFAE0;strokeColor=#DDA15E;fillColor=#BC6C25;labelBackgroundColor=#283618;endArrow=diamond;endFill=0;dashed=1;dashPattern=8 8;entryX=1;entryY=0.5;entryDx=0;entryDy=0;exitX=0.5;exitY=0;exitDx=0;exitDy=0;" parent="WIyWlLk6GJQsqaUBKTNV-1" source="tlL8x4SYafilrO8FaroJ-4" target="tlL8x4SYafilrO8FaroJ-62" edge="1">
                    <mxGeometry relative="1" as="geometry">
                        <mxPoint x="780" y="240" as="sourcePoint"/>
                        <Array as="points">
                            <mxPoint x="695" y="235"/>
                        </Array>
                    </mxGeometry>
                </mxCell>
                <mxCell id="tlL8x4SYafilrO8FaroJ-66" style="edgeStyle=orthogonalEdgeStyle;curved=0;rounded=1;sketch=0;orthogonalLoop=1;jettySize=auto;html=1;fontColor=#FEFAE0;strokeColor=#DDA15E;fillColor=#BC6C25;labelBackgroundColor=#283618;endArrow=diamond;endFill=0;dashed=1;dashPattern=8 8;exitX=0.5;exitY=0;exitDx=0;exitDy=0;entryX=0;entryY=0.5;entryDx=0;entryDy=0;" parent="WIyWlLk6GJQsqaUBKTNV-1" source="tlL8x4SYafilrO8FaroJ-0" target="tlL8x4SYafilrO8FaroJ-62" edge="1">
                    <mxGeometry relative="1" as="geometry">
                        <mxPoint x="300" y="235" as="targetPoint"/>
                        <Array as="points">
                            <mxPoint x="375" y="235"/>
                        </Array>
                    </mxGeometry>
                </mxCell>
                <mxCell id="tlL8x4SYafilrO8FaroJ-69" value="Exception" style="swimlane;fontStyle=0;childLayout=stackLayout;horizontal=1;startSize=30;horizontalStack=0;resizeParent=1;resizeParentMax=0;resizeLast=0;collapsible=1;marginBottom=0;rounded=0;sketch=0;fontColor=#FEFAE0;strokeColor=#DDA15E;fillColor=#BC6C25;" parent="WIyWlLk6GJQsqaUBKTNV-1" vertex="1">
                    <mxGeometry x="20" y="360" width="140" height="60" as="geometry"/>
                </mxCell>
                <mxCell id="4" value="2" style="text;html=1;strokeColor=none;fillColor=none;align=center;verticalAlign=middle;whiteSpace=wrap;rounded=0;" vertex="1" parent="WIyWlLk6GJQsqaUBKTNV-1">
                    <mxGeometry x="508" y="389" width="20" height="10" as="geometry"/>
                </mxCell>
                <mxCell id="10" value="1-n" style="text;html=1;strokeColor=none;fillColor=none;align=center;verticalAlign=middle;whiteSpace=wrap;rounded=0;" vertex="1" parent="WIyWlLk6GJQsqaUBKTNV-1">
                    <mxGeometry x="530" y="384" width="30" height="20" as="geometry"/>
                </mxCell>
                <mxCell id="14" value="0" style="text;html=1;strokeColor=none;fillColor=none;align=center;verticalAlign=middle;whiteSpace=wrap;rounded=0;" vertex="1" parent="WIyWlLk6GJQsqaUBKTNV-1">
                    <mxGeometry x="350" y="320" width="20" height="10" as="geometry"/>
                </mxCell>
                <mxCell id="15" value="n" style="text;html=1;strokeColor=none;fillColor=none;align=center;verticalAlign=middle;whiteSpace=wrap;rounded=0;" vertex="1" parent="WIyWlLk6GJQsqaUBKTNV-1">
                    <mxGeometry x="448" y="222" width="20" height="10" as="geometry"/>
                </mxCell>
                <mxCell id="16" value="0" style="text;html=1;strokeColor=none;fillColor=none;align=center;verticalAlign=middle;whiteSpace=wrap;rounded=0;" vertex="1" parent="WIyWlLk6GJQsqaUBKTNV-1">
                    <mxGeometry x="700" y="320" width="20" height="10" as="geometry"/>
                </mxCell>
                <mxCell id="17" value="n" style="text;html=1;strokeColor=none;fillColor=none;align=center;verticalAlign=middle;whiteSpace=wrap;rounded=0;" vertex="1" parent="WIyWlLk6GJQsqaUBKTNV-1">
                    <mxGeometry x="610" y="220" width="10" height="10" as="geometry"/>
                </mxCell>
            </root>
        </mxGraphModel>
    </diagram>
</mxfile>